<?xml version="1.0" encoding="utf-8"?>
<!-- Generator: Adobe Illustrator 25.3.1, SVG Export Plug-In . SVG Version: 6.00 Build 0)  -->
<svg version="1.1" id="Ebene_1" xmlns="http://www.w3.org/2000/svg" xmlns:xlink="http://www.w3.org/1999/xlink" x="0px" y="0px"
	 viewBox="0 0 141.7 34" style="enable-background:new 0 0 141.7 34;" xml:space="preserve">
<style type="text/css">
	.st0{fill:#86BC25;}
	.st1{fill:#289B8F;}
</style>
<path class="st0" d="M64.3,15"/>
<g>
	<g>
		<path class="st0" d="M17.3,15.5V20h5c-0.8,2-2.8,3.4-5.1,3.4c-3.2,0-5.8-2.9-5.8-6.4c0-3.5,2.6-6.4,5.8-6.4c2.1,0,3.9,1,4.9,2.8h6
			l-0.2-0.5c-1.5-4.5-5.5-7.3-10.7-7.3c-6.4,0-11.5,5-11.5,11.3c0,6.4,5,11.3,11.5,11.3c3.3,0,6.2-1.2,8.2-3.3
			c2.2-2.3,3.3-5.4,3.1-9.1l0-0.4H17.3z M22.8,20L22.8,20L22.8,20C22.8,20,22.8,20,22.8,20z"/>
		<path class="st0" d="M69.1,5.7c-3.1,0-6,1.4-8,3.6c-2-2.3-4.9-3.6-8.1-3.6c-6.1,0-11.1,5.1-11.1,11.4c0,6.3,5,11.3,11.1,11.3
			c3.5,0,6.1-1.3,8.2-3.4c2,2.1,4.8,3.4,7.9,3.4c3.6,0,6.2-1.3,8.3-3.5c1.2-1.4,1.8-3,2-3.6h-6c-1,1.5-2.7,2.2-4.4,2.2
			c-1.8,0-3.4-0.8-4.4-2.2h-7.3c-1,1.5-2.6,2.2-4.4,2.2c-2.6,0-4.7-1.6-5.4-4.3h8.1v0H80c0.4-4.2-0.7-7.5-2.7-9.8
			C75.3,7,72.4,5.7,69.1,5.7z M58.3,14.6H47.6c0.8-2.5,2.8-4.1,5.3-4.1C55.6,10.5,57.6,12.1,58.3,14.6
			C58.3,14.6,58.3,14.6,58.3,14.6z M63.8,14.7c0.8-2.5,2.8-4.1,5.3-4.1c2.6,0,4.7,1.6,5.4,4.1H63.8z"/>
		<path class="st0" d="M91.7,5.7c-6,0-9.9,4.2-9.9,9.9v12.5h5.7V15.4c0-2.5,1.8-4.2,4.3-4.2c3.7,0,4.2,3,4.2,4.2v12.7h5.7V15.5
			C101.5,9.7,97.9,5.7,91.7,5.7z"/>
		<path class="st0" d="M30.2,15.7v12.5h5.7V15.7c0-3.1,2.4-5.1,6-4.4V5.9C34.6,5,30.2,9.4,30.2,15.7z"/>
	</g>
	<g>
		<rect x="110" y="5.9" class="st1" width="5.7" height="22.1"/>
		<polygon class="st1" points="117.6,5.9 117.6,10.5 122.6,10.5 122.6,28.1 128.3,28.1 128.3,10.5 133.2,10.5 133.2,5.9 		"/>
	</g>
</g>
</svg>
