<?xml version="1.0" encoding="UTF-8"?>
<svg version="1.1" width="425.5pt" height="425.5pt" xmlns:inkscape="http://www.inkscape.org/namespaces/inkscape" viewBox="0 0 425.5 425.5" xmlns="http://www.w3.org/2000/svg" xmlns:xlink="http://www.w3.org/1999/xlink">
 <title>materna_ips_logo Würfel.eps</title>
 <defs/>
 <g id="Background" inkscape:label="Background" inkscape:groupmode="layer">
  <path transform="translate(0.000390625, 0)" style="fill:#1a2630; fill-rule:nonzero;stroke:none;" d="M425.5 425.5 L0 425.5 L0 0 L425.5 0 L425.5 425.5 "/>
  <path transform="translate(63.9301, 144.804)" style="fill:#ffffff; fill-rule:nonzero;stroke:none;" d="M30.8125 0 L42.9999 0 L42.9999 44 L34 44 L34 14.241 C34 13.387 34.0082 12.183 34.0277 10.643 C34.0508 9.102 34.0617 7.912 34.0617 7.073 L25.2996 44 L17.6281 44 L8.9359 7.073 C8.9359 7.912 8.9437 9.102 8.9668 10.643 C8.9887 12.183 9 13.387 9 14.241 L9 44 L0 44 L0 0 L14.0512 0 L22.4637 34.598 L30.8125 0 "/>
  <path transform="translate(112.322, 144.804)" style="fill:#ffffff; fill-rule:nonzero;stroke:none;" d="M15.059 28 L26.406 28 L20.811 10.563 L15.059 28 Z M15.708 0 L26.112 0 L41.678 44 L31.656 44 L28.768 35 L12.635 35 L9.667 44 L0 44 L15.708 0 Z"/>
  <path transform="translate(151.93, 144.804)" style="fill:#ffffff; fill-rule:nonzero;stroke:none;" d="M36 0 L36 8 L22 8 L22 44 L13 44 L13 8 L0 8 L0 0 L36 0 "/>
  <path transform="translate(192.93, 144.804)" style="fill:#ffffff; fill-rule:nonzero;stroke:none;" d="M32 8 L9 8 L9 17 L31 17 L31 25 L9 25 L9 36 L34 36 L34 44 L0 44 L0 0 L32 0 L32 8 "/>
  <path transform="translate(233.93, 144.804)" style="fill:#ffffff; fill-rule:nonzero;stroke:none;" d="M9 8 L9 20 L19.044 20 C21.038 20 22.531 19.757 23.531 19.269 C25.299 18.422 26.18 16.744 26.18 14.239 C26.18 11.533 25.326 9.717 23.618 8.788 C22.658 8.264 21.22 8 19.302 8 L9 8 Z M28.06 1.134 C29.685 1.833 31.063 2.857 32.188 4.21 C33.125 5.325 33.865 6.557 34.41 7.912 C34.951 9.267 35.225 10.808 35.225 12.54 C35.225 14.627 34.699 16.682 33.641 18.702 C32.58 20.721 30.836 22.151 28.402 22.987 C30.438 23.804 31.88 24.962 32.728 26.466 C33.573 27.967 34 30.261 34 33.343 L34 36.246 C34 38.271 34.083 39.642 34.248 40.366 C34.5 41.508 35.083 42.348 36 42.891 L36 44 L26.003 44 C25.716 43.04 25.515 42.264 25.396 41.676 C25.151 40.465 25.019 39.221 25 37.942 L24.938 33.913 C24.901 31.15 24.405 29.303 23.458 28.385 C22.511 27.462 20.737 27 18.133 27 L9 27 L9 44 L0 44 L0 0 L21.099 0 C24.117 0.063 26.433 0.441 28.06 1.134 Z"/>
  <path transform="translate(277.93, 144.804)" style="fill:#ffffff; fill-rule:nonzero;stroke:none;" d="M0 0 L8.648 0 L27 30.682 L27 0 L36 0 L36 44 L27.818 44 L9 12.78 L9 44 L0 44 L0 0 "/>
  <path transform="translate(319.824, 144.804)" style="fill:#ffffff; fill-rule:nonzero;stroke:none;" d="M15.058 28 L26.409 28 L20.814 10.563 L15.058 28 Z M15.705 0 L26.111 0 L41.676 44 L31.654 44 L28.767 35 L12.637 35 L9.666 44 L0 44 L15.705 0 Z"/>
  <g id="Group1" transform="translate(63.2241, 197.488) scale(1, 1)" style="fill:none; stroke:none">
   <path transform="translate(0, 0.685485)" style="fill:#ffffff; fill-rule:nonzero;stroke:none;" d="M16.0777 0 L0 0 L0 82.3517 L16.0777 82.3517 L16.0777 0 Z"/>
   <path transform="translate(29.4922, 0.685485)" style="fill:#ffffff; fill-rule:nonzero;stroke:none;" d="M51.9411 7.63381 C46.8467 2.53941 40.132 0 31.9218 0 L0 0 L0 82.3517 L16.0777 82.3517 L16.0777 51.3491 L31.9218 51.3491 C40.132 51.3491 46.8467 48.8096 51.9411 43.7152 C56.6771 38.9792 59.1075 32.9656 59.1075 25.6745 C59.1075 18.399 56.6771 12.3699 51.9411 7.63381 Z M39.7893 33.7757 C37.5926 35.8633 34.6949 36.8916 31.1117 36.8916 L16.0777 36.8916 L16.0777 14.3484 L31.1117 14.3484 C34.6949 14.3484 37.5926 15.3923 39.7893 17.4643 C41.986 19.5519 43.0298 22.325 43.0298 25.6745 C43.0298 29.0396 41.986 31.8127 39.7893 33.7757 Z"/>
   <path transform="translate(89.0517, 0)" style="fill:#ffffff; fill-rule:nonzero;stroke:none;" d="M54.2468 41.2849 C50.7882 38.0444 45.5847 35.9568 38.5274 34.9286 L28.8059 33.542 C25.5655 33.0746 23.1351 32.0308 21.4058 30.4106 C19.6765 28.7904 18.7418 26.8274 18.7418 24.397 C18.7418 21.3902 19.8946 18.8508 22.0913 16.8723 C24.3036 14.9093 27.4194 13.9901 31.47 13.9901 C38.7611 13.9901 44.4163 15.844 48.3578 19.661 L58.5311 9.59679 C51.9411 3.22489 43.0298 0 31.9374 0 C23.1351 0 16.2024 2.30572 10.9989 6.82369 C5.79546 11.4507 3.24047 17.4643 3.24047 24.9735 C3.24047 38.2781 10.5315 46.021 25.0981 47.9995 L35.0532 49.3861 C38.4027 49.8379 40.8331 50.7726 42.4533 52.2682 C44.0736 53.7794 44.8837 56.0851 44.8837 59.2165 C44.8837 66.0402 40.023 69.3898 30.3171 69.3898 C21.6395 69.3898 15.0495 67.0685 10.4225 62.457 L0 72.8639 C7.18201 80.1394 17.2462 83.7382 30.0834 83.7382 C38.9792 83.7382 46.2702 81.526 52.0501 77.0236 C57.7209 72.6302 60.6187 66.492 60.6187 58.7492 C60.6187 51.1154 58.5311 45.3355 54.2468 41.2849 Z"/>
  </g>
  <g id="Group2" transform="translate(224.13, 198.819) scale(1, 1)" style="fill:none; stroke:none">
   <path transform="translate(1.37627, 0)" style="fill:#438dcb; fill-rule:nonzero;stroke:none;" d="M3.29993 0 L0 0 L0 3.25301 L3.29993 3.25301 L3.29993 0 Z M3.20609 6.25579 L0.0938369 6.25579 L0.0938369 21.473 L3.20609 21.473 L3.20609 6.25579 Z"/>
   <path transform="translate(9.52183, 6.06812)" style="fill:#438dcb; fill-rule:nonzero;stroke:none;" d="M12.5429 5.67713 C12.5429 3.81603 12.0111 2.3772 10.9789 1.37627 C10.0249 0.453545 8.75811 0 7.17852 0 C5.48946 0 4.12882 0.578661 3.0497 1.7047 L3.0497 0.187674 L0 0.187674 L0 15.4049 L3.0497 15.4049 L3.0497 6.13068 C3.0497 5.02027 3.36249 4.14446 3.98807 3.55016 C4.58237 3.00278 5.3487 2.73691 6.28707 2.73691 C7.24108 2.73691 7.96049 3.00278 8.50788 3.55016 C9.11782 4.11318 9.43061 4.98899 9.43061 6.13068 L9.43061 15.4049 L12.5429 15.4049 L12.5429 5.67713 Z"/>
   <path transform="translate(25.469, 1.89238)" style="fill:#438dcb; fill-rule:nonzero;stroke:none;" d="M7.86666 16.9688 L6.59986 16.9688 C5.45818 16.9688 4.87952 16.3745 4.87952 15.2016 L4.87952 6.97521 L7.86666 6.97521 L7.86666 4.62929 L4.87952 4.62929 L4.87952 0 L1.76726 0 L1.76726 4.62929 L0 4.62929 L0 6.97521 L1.76726 6.97521 L1.76726 15.3423 C1.76726 16.5153 2.11133 17.5162 2.81511 18.2826 C3.58144 19.1584 4.64493 19.5806 6.00556 19.5806 L7.86666 19.5806 L7.86666 16.9688 Z"/>
   <path transform="translate(36.4939, 6.06812)" style="fill:#438dcb; fill-rule:nonzero;stroke:none;" d="M13.1059 7.33492 C13.1059 5.12975 12.5272 3.36249 11.4012 2.04877 C10.2126 0.688137 8.58607 0 6.5373 0 C4.53545 0 2.95586 0.688137 1.75162 2.04877 C0.563021 3.42505 0 5.3487 0 7.77282 C0 12.9651 2.31464 15.5926 6.94393 15.5926 C8.25765 15.5926 9.35241 15.3736 10.2751 14.9826 C11.0884 14.6229 11.9016 14.0286 12.7305 13.2154 L10.7443 11.3855 C9.71212 12.4334 8.46096 12.9495 7.03777 12.9495 C5.73969 12.9495 4.80132 12.5585 4.11318 11.8078 C3.44069 11.0571 3.09662 9.99363 3.09662 8.67991 L13.1059 8.67991 L13.1059 7.33492 Z M3.09662 6.55294 C3.1279 5.70841 3.25301 5.02027 3.4876 4.47289 C4.05063 3.19045 5.05155 2.54924 6.56858 2.54924 C8.03869 2.54924 9.05526 3.19045 9.587 4.47289 C9.86851 5.08283 9.99363 5.77097 10.0249 6.55294 L3.09662 6.55294 Z"/>
   <path transform="translate(53.621, 0.0938369)" style="fill:#438dcb; fill-rule:nonzero;stroke:none;" d="M6.16195 18.7674 L4.78568 18.7674 C3.65964 18.7674 3.11226 18.1731 3.11226 17.0001 L3.11226 0 L0 0 L0 17.1721 C0 18.4077 0.344069 19.3617 1.00093 20.1124 C1.76726 20.9569 2.83075 21.3792 4.25394 21.3792 L6.16195 21.3792 L6.16195 18.7674 Z"/>
   <path transform="translate(63.1053, 0.0938369)" style="fill:#438dcb; fill-rule:nonzero;stroke:none;" d="M6.16195 18.7674 L4.78568 18.7674 C3.65964 18.7674 3.11226 18.1731 3.11226 17.0001 L3.11226 0 L0 0 L0 17.1721 C0 18.4077 0.344069 19.3617 1.00093 20.1124 C1.76726 20.9569 2.83075 21.3792 4.25394 21.3792 L6.16195 21.3792 L6.16195 18.7674 Z"/>
   <path transform="translate(72.5905, 0)" style="fill:#438dcb; fill-rule:nonzero;stroke:none;" d="M3.29993 0 L0 0 L0 3.25301 L3.29993 3.25301 L3.29993 0 Z M3.20609 6.25579 L0.0938369 6.25579 L0.0938369 21.473 L3.20609 21.473 L3.20609 6.25579 Z"/>
   <path transform="translate(80.0313, 6.06812)" style="fill:#438dcb; fill-rule:nonzero;stroke:none;" d="M12.5272 0.187674 L9.5088 0.187674 L9.5088 1.79854 C8.50788 0.5943 7.14724 0 5.45818 0 C3.87859 0 2.61179 0.453545 1.73598 1.32936 C0.578661 2.4554 0 4.53545 0 7.50695 C0 10.4785 0.578661 12.5585 1.73598 13.7002 C2.64307 14.5916 3.87859 15.0452 5.4269 15.0452 C7.11596 15.0452 8.41404 14.4665 9.43061 13.3092 L9.43061 15.2485 C9.43061 16.3589 9.1491 17.266 8.60171 17.9541 C7.96049 18.7361 7.05341 19.1271 5.78661 19.1271 C4.53545 19.1271 3.40941 18.6735 2.43976 17.7821 L0.453545 19.7214 C1.92366 21.082 3.75347 21.7389 5.92736 21.7389 C7.96049 21.7389 9.57136 21.1446 10.76 19.9403 C11.9642 18.7674 12.5272 17.2034 12.5272 15.3111 L12.5272 0.187674 Z M8.9145 10.8069 C8.41404 11.8078 7.53823 12.3083 6.28707 12.3083 C5.03591 12.3083 4.14446 11.8078 3.65964 10.8069 C3.29993 10.0875 3.11226 9.00834 3.11226 7.50695 C3.11226 6.03684 3.29993 4.92644 3.65964 4.20702 C4.14446 3.20609 5.03591 2.73691 6.28707 2.73691 C7.53823 2.73691 8.41404 3.20609 8.9145 4.20702 C9.24293 4.92644 9.43061 6.03684 9.43061 7.50695 C9.43061 9.00834 9.24293 10.0875 8.9145 10.8069 Z"/>
   <path transform="translate(96.697, 6.06812)" style="fill:#438dcb; fill-rule:nonzero;stroke:none;" d="M13.1059 7.33492 C13.1059 5.12975 12.5272 3.36249 11.4012 2.04877 C10.2126 0.688137 8.58607 0 6.5373 0 C4.53545 0 2.95586 0.688137 1.75162 2.04877 C0.563021 3.42505 0 5.3487 0 7.77282 C0 12.9651 2.31464 15.5926 6.94393 15.5926 C8.25765 15.5926 9.35241 15.3736 10.2751 14.9826 C11.0884 14.6229 11.9016 14.0286 12.7305 13.2154 L10.7443 11.3855 C9.71212 12.4334 8.46096 12.9495 7.03777 12.9495 C5.73969 12.9495 4.80132 12.5585 4.11318 11.8078 C3.44069 11.0571 3.09662 9.99363 3.09662 8.67991 L13.1059 8.67991 L13.1059 7.33492 Z M3.09662 6.55294 C3.1279 5.70841 3.25301 5.02027 3.4876 4.47289 C4.05063 3.19045 5.05155 2.54924 6.56858 2.54924 C8.03869 2.54924 9.05526 3.19045 9.587 4.47289 C9.86851 5.08283 9.99363 5.77097 10.0249 6.55294 L3.09662 6.55294 Z"/>
   <path transform="translate(113.918, 6.06812)" style="fill:#438dcb; fill-rule:nonzero;stroke:none;" d="M12.5429 5.67713 C12.5429 3.81603 12.0111 2.3772 10.9789 1.37627 C10.0249 0.453545 8.75811 0 7.17852 0 C5.48946 0 4.12882 0.578661 3.0497 1.7047 L3.0497 0.187674 L0 0.187674 L0 15.4049 L3.0497 15.4049 L3.0497 6.13068 C3.0497 5.02027 3.36249 4.14446 3.98807 3.55016 C4.58237 3.00278 5.3487 2.73691 6.28707 2.73691 C7.24108 2.73691 7.96049 3.00278 8.50788 3.55016 C9.11782 4.11318 9.43061 4.98899 9.43061 6.13068 L9.43061 15.4049 L12.5429 15.4049 L12.5429 5.67713 Z"/>
   <path transform="translate(129.865, 1.89238)" style="fill:#438dcb; fill-rule:nonzero;stroke:none;" d="M7.86666 16.9688 L6.59986 16.9688 C5.45818 16.9688 4.87952 16.3745 4.87952 15.2016 L4.87952 6.97521 L7.86666 6.97521 L7.86666 4.62929 L4.87952 4.62929 L4.87952 0 L1.76726 0 L1.76726 4.62929 L0 4.62929 L0 6.97521 L1.76726 6.97521 L1.76726 15.3423 C1.76726 16.5153 2.11133 17.5162 2.81511 18.2826 C3.58144 19.1584 4.64493 19.5806 6.00556 19.5806 L7.86666 19.5806 L7.86666 16.9688 Z"/>
   <path transform="translate(1.47011, 36.0681)" style="fill:#438dcb; fill-rule:nonzero;stroke:none;" d="M10.9164 1.345 C9.99363 0.453545 8.75811 0 7.1316 0 C5.4269 0 4.05063 0.5943 3.0497 1.79854 L3.0497 0.187674 L0 0.187674 L0 21.5668 L3.0497 21.5668 L3.0497 13.8409 C4.05063 15.0139 5.39562 15.5926 7.1316 15.5926 C8.72683 15.5926 9.96235 15.139 10.9164 14.2319 C12.0737 13.0902 12.6523 10.932 12.6523 7.77282 C12.6523 4.62929 12.0737 2.48668 10.9164 1.345 Z M8.9927 11.323 C8.50788 12.3395 7.60079 12.8557 6.31835 12.8557 C5.02027 12.8557 4.12882 12.3395 3.62836 11.323 C3.23737 10.5723 3.0497 9.36805 3.0497 7.77282 C3.0497 6.19323 3.23737 4.98899 3.62836 4.2383 C4.12882 3.23737 5.02027 2.73691 6.31835 2.73691 C7.60079 2.73691 8.50788 3.23737 8.9927 4.2383 C9.36805 4.98899 9.54008 6.19323 9.54008 7.77282 C9.54008 9.36805 9.36805 10.5723 8.9927 11.323 Z"/>
   <path transform="translate(16.6448, 36.0681)" style="fill:#438dcb; fill-rule:nonzero;stroke:none;" d="M12.5585 5.22359 C12.5585 1.73598 10.4159 0 6.16195 0 C4.86388 0 3.80039 0.156395 3.00278 0.453545 C2.11133 0.781974 1.32936 1.37627 0.625579 2.18953 L2.67435 4.0819 C3.44069 3.09662 4.56673 2.61179 6.05248 2.61179 C8.3202 2.61179 9.44625 3.58144 9.44625 5.45818 L9.44625 6.55294 L5.3487 6.55294 C3.61272 6.55294 2.299 6.94393 1.39191 7.74154 C0.469184 8.5548 0 9.60264 0 10.932 C0 12.277 0.406626 13.3874 1.23552 14.2006 C2.14261 15.139 3.51888 15.5926 5.3487 15.5926 C7.02213 15.5926 8.3984 15.0765 9.44625 14.0286 L9.44625 15.4049 L12.5585 15.4049 L12.5585 5.22359 Z M8.77375 12.1675 C8.14817 12.7305 7.17852 13.0277 5.8648 13.0277 C3.97243 13.0277 3.03406 12.3083 3.03406 10.8694 C3.03406 9.39933 3.94115 8.67991 5.80225 8.67991 L9.44625 8.67991 L9.44625 9.91543 C9.44625 10.9946 9.21165 11.7452 8.77375 12.1675 Z"/>
   <path transform="translate(31.9325, 36.0681)" style="fill:#438dcb; fill-rule:nonzero;stroke:none;" d="M8.33584 6.4591 L5.89608 6.24015 C4.45725 6.13068 3.76911 5.55202 3.76911 4.50417 C3.76911 3.20609 4.70748 2.54924 6.55294 2.54924 C8.21073 2.54924 9.47752 2.90894 10.369 3.65964 L12.3239 1.7047 C11.0102 0.578661 9.10218 0 6.58422 0 C4.9108 0 3.53452 0.390987 2.47104 1.20424 C1.345 2.08005 0.766334 3.20609 0.766334 4.66056 C0.766334 7.2098 2.28336 8.58607 5.33306 8.85195 L7.81974 9.0709 C9.18037 9.19601 9.88415 9.79031 9.88415 10.8694 C9.88415 12.277 8.75811 12.9651 6.49038 12.9651 C4.58237 12.9651 3.11226 12.4334 2.04877 11.3855 L0 13.3874 C1.48575 14.8575 3.67528 15.5926 6.49038 15.5926 C8.41404 15.5926 9.97799 15.1703 11.1666 14.3258 C12.3552 13.4812 12.9338 12.277 12.9338 10.7443 C12.9338 8.13253 11.4012 6.72498 8.33584 6.4591 Z"/>
   <path transform="translate(46.6014, 36.0681)" style="fill:#438dcb; fill-rule:nonzero;stroke:none;" d="M8.33584 6.4591 L5.89608 6.24015 C4.45725 6.13068 3.76911 5.55202 3.76911 4.50417 C3.76911 3.20609 4.70748 2.54924 6.55294 2.54924 C8.21073 2.54924 9.47752 2.90894 10.369 3.65964 L12.3239 1.7047 C11.0102 0.578661 9.10218 0 6.58422 0 C4.9108 0 3.53452 0.390987 2.47104 1.20424 C1.345 2.08005 0.766334 3.20609 0.766334 4.66056 C0.766334 7.2098 2.28336 8.58607 5.33306 8.85195 L7.81974 9.0709 C9.18037 9.19601 9.88415 9.79031 9.88415 10.8694 C9.88415 12.277 8.75811 12.9651 6.49038 12.9651 C4.58237 12.9651 3.11226 12.4334 2.04877 11.3855 L0 13.3874 C1.48575 14.8575 3.67528 15.5926 6.49038 15.5926 C8.41404 15.5926 9.97799 15.1703 11.1666 14.3258 C12.3552 13.4812 12.9338 12.277 12.9338 10.7443 C12.9338 8.13253 11.4012 6.72498 8.33584 6.4591 Z"/>
   <path transform="translate(61.9594, 36.0681)" style="fill:#438dcb; fill-rule:nonzero;stroke:none;" d="M13.1059 7.33492 C13.1059 5.12975 12.5272 3.36249 11.4012 2.04877 C10.2126 0.688137 8.58607 0 6.5373 0 C4.53545 0 2.95586 0.688137 1.75162 2.04877 C0.563021 3.42505 0 5.3487 0 7.77282 C0 12.9651 2.31464 15.5926 6.94393 15.5926 C8.25765 15.5926 9.35241 15.3736 10.2751 14.9826 C11.0884 14.6229 11.9016 14.0286 12.7305 13.2154 L10.7443 11.3855 C9.71212 12.4334 8.46096 12.9495 7.03777 12.9495 C5.73969 12.9495 4.80132 12.5585 4.11318 11.8078 C3.44069 11.0571 3.09662 9.99363 3.09662 8.67991 L13.1059 8.67991 L13.1059 7.33492 Z M3.09662 6.55294 C3.1279 5.70841 3.25301 5.02027 3.4876 4.47289 C4.05063 3.19045 5.05155 2.54924 6.56858 2.54924 C8.03869 2.54924 9.05526 3.19045 9.587 4.47289 C9.86851 5.08283 9.99363 5.77097 10.0249 6.55294 L3.09662 6.55294 Z"/>
   <path transform="translate(78.631, 36.0681)" style="fill:#438dcb; fill-rule:nonzero;stroke:none;" d="M12.5429 5.67713 C12.5429 3.81603 12.0111 2.3772 10.9789 1.37627 C10.0249 0.453545 8.75811 0 7.17852 0 C5.48946 0 4.12882 0.578661 3.0497 1.7047 L3.0497 0.187674 L0 0.187674 L0 15.4049 L3.0497 15.4049 L3.0497 6.13068 C3.0497 5.02027 3.36249 4.14446 3.98807 3.55016 C4.58237 3.00278 5.3487 2.73691 6.28707 2.73691 C7.24108 2.73691 7.96049 3.00278 8.50788 3.55016 C9.11782 4.11318 9.43061 4.98899 9.43061 6.13068 L9.43061 15.4049 L12.5429 15.4049 L12.5429 5.67713 Z"/>
   <path transform="translate(94.7015, 36.0681)" style="fill:#438dcb; fill-rule:nonzero;stroke:none;" d="M12.5272 0.187674 L9.5088 0.187674 L9.5088 1.79854 C8.50788 0.5943 7.14724 0 5.45818 0 C3.87859 0 2.61179 0.453545 1.73598 1.32936 C0.578661 2.4554 0 4.53545 0 7.50695 C0 10.4785 0.578661 12.5585 1.73598 13.7002 C2.64307 14.5916 3.87859 15.0452 5.4269 15.0452 C7.11596 15.0452 8.41404 14.4665 9.43061 13.3092 L9.43061 15.2485 C9.43061 16.3589 9.1491 17.266 8.60171 17.9541 C7.96049 18.7361 7.05341 19.1271 5.78661 19.1271 C4.53545 19.1271 3.40941 18.6735 2.43976 17.7821 L0.453545 19.7214 C1.92366 21.082 3.75347 21.7389 5.92736 21.7389 C7.96049 21.7389 9.57136 21.1446 10.76 19.9403 C11.9642 18.7674 12.5272 17.2034 12.5272 15.3111 L12.5272 0.187674 Z M8.9145 10.8069 C8.41404 11.8078 7.53823 12.3083 6.28707 12.3083 C5.03591 12.3083 4.14446 11.8078 3.65964 10.8069 C3.29993 10.0875 3.11226 9.00834 3.11226 7.50695 C3.11226 6.03684 3.29993 4.92644 3.65964 4.20702 C4.14446 3.20609 5.03591 2.73691 6.28707 2.73691 C7.53823 2.73691 8.41404 3.20609 8.9145 4.20702 C9.24293 4.92644 9.43061 6.03684 9.43061 7.50695 C9.43061 9.00834 9.24293 10.0875 8.9145 10.8069 Z"/>
   <path transform="translate(110.818, 36.0681)" style="fill:#438dcb; fill-rule:nonzero;stroke:none;" d="M13.1059 7.33492 C13.1059 5.12975 12.5272 3.36249 11.4012 2.04877 C10.2126 0.688137 8.58607 0 6.5373 0 C4.53545 0 2.95586 0.688137 1.75162 2.04877 C0.563021 3.42505 0 5.3487 0 7.77282 C0 12.9651 2.31464 15.5926 6.94393 15.5926 C8.25765 15.5926 9.35241 15.3736 10.2751 14.9826 C11.0884 14.6229 11.9016 14.0286 12.7305 13.2154 L10.7443 11.3855 C9.71212 12.4334 8.46096 12.9495 7.03777 12.9495 C5.73969 12.9495 4.80132 12.5585 4.11318 11.8078 C3.44069 11.0571 3.09662 9.99363 3.09662 8.67991 L13.1059 8.67991 L13.1059 7.33492 Z M3.09662 6.55294 C3.1279 5.70841 3.25301 5.02027 3.4876 4.47289 C4.05063 3.19045 5.05155 2.54924 6.56858 2.54924 C8.03869 2.54924 9.05526 3.19045 9.587 4.47289 C9.86851 5.08283 9.99363 5.77097 10.0249 6.55294 L3.09662 6.55294 Z"/>
   <path transform="translate(127.489, 36.0681)" style="fill:#438dcb; fill-rule:nonzero;stroke:none;" d="M7.17852 0 C5.31742 0 3.92551 0.5943 3.0497 1.82982 L3.0497 0.187674 L0 0.187674 L0 15.4049 L3.0497 15.4049 L3.0497 6.16195 C3.0497 5.12975 3.36249 4.30086 3.92551 3.65964 C4.55109 3.03406 5.28614 2.73691 6.16195 2.73691 C7.00649 2.73691 7.8041 3.06534 8.4766 3.75347 L10.8538 1.43883 C9.88415 0.484824 8.66427 0 7.17852 0 Z"/>
   <path transform="translate(0, 66.0681)" style="fill:#438dcb; fill-rule:nonzero;stroke:none;" d="M8.33584 6.4591 L5.89608 6.24015 C4.45725 6.13068 3.76911 5.55202 3.76911 4.50417 C3.76911 3.20609 4.70748 2.54924 6.55294 2.54924 C8.21073 2.54924 9.47752 2.90894 10.369 3.65964 L12.3239 1.7047 C11.0102 0.578661 9.10218 0 6.58422 0 C4.9108 0 3.53452 0.390987 2.47104 1.20424 C1.345 2.08005 0.766334 3.20609 0.766334 4.66056 C0.766334 7.2098 2.28336 8.58607 5.33306 8.85195 L7.81974 9.0709 C9.18037 9.19601 9.88415 9.79031 9.88415 10.8694 C9.88415 12.277 8.75811 12.9651 6.49038 12.9651 C4.58237 12.9651 3.11226 12.4334 2.04877 11.3855 L0 13.3874 C1.48575 14.8575 3.67528 15.5926 6.49038 15.5926 C8.41404 15.5926 9.97799 15.1703 11.1666 14.3258 C12.3552 13.4812 12.9338 12.277 12.9338 10.7443 C12.9338 8.13253 11.4012 6.72498 8.33584 6.4591 Z"/>
   <path transform="translate(17.6315, 66.0681)" style="fill:#438dcb; fill-rule:nonzero;stroke:none;" d="M11.104 1.82982 C9.89979 0.5943 8.36712 0 6.44347 0 C4.55109 0 3.00278 0.5943 1.79854 1.82982 C0.60994 3.06534 0 5.05155 0 7.77282 C0 10.541 0.60994 12.5272 1.79854 13.7471 C3.00278 14.9826 4.55109 15.5926 6.44347 15.5926 C8.36712 15.5926 9.89979 14.9826 11.104 13.7471 C12.2926 12.5272 12.9026 10.541 12.9026 7.77282 C12.9026 5.05155 12.2926 3.06534 11.104 1.82982 Z M8.72683 11.9486 C8.11689 12.5585 7.35056 12.8557 6.44347 12.8557 C5.55202 12.8557 4.78568 12.5585 4.17574 11.9486 C3.47196 11.2604 3.11226 9.85287 3.11226 7.77282 C3.11226 5.70841 3.47196 4.30086 4.17574 3.59708 C4.7544 3.03406 5.52074 2.73691 6.44347 2.73691 C7.38183 2.73691 8.14817 3.03406 8.72683 3.59708 C9.43061 4.30086 9.79031 5.70841 9.79031 7.77282 C9.79031 9.85287 9.43061 11.2604 8.72683 11.9486 Z"/>
   <path transform="translate(36.3274, 60.0938)" style="fill:#438dcb; fill-rule:nonzero;stroke:none;" d="M6.16195 18.7674 L4.78568 18.7674 C3.65964 18.7674 3.11226 18.1731 3.11226 17.0001 L3.11226 0 L0 0 L0 17.1721 C0 18.4077 0.344069 19.3617 1.00093 20.1124 C1.76726 20.9569 2.83075 21.3792 4.25394 21.3792 L6.16195 21.3792 L6.16195 18.7674 Z"/>
   <path transform="translate(47.4582, 66.2558)" style="fill:#438dcb; fill-rule:nonzero;stroke:none;" d="M12.5429 0 L9.43061 0 L9.43061 9.27421 C9.43061 10.3846 9.11782 11.2291 8.53916 11.7922 C7.92922 12.3708 7.16288 12.668 6.22451 12.668 C5.31742 12.668 4.58237 12.4021 4.01935 11.8547 C3.42505 11.2604 3.11226 10.3846 3.11226 9.27421 L3.11226 0 L0 0 L0 9.72776 C0 11.5889 0.516103 13.0277 1.56395 14.013 C2.50232 14.9513 3.75348 15.4049 5.3487 15.4049 C7.00649 15.4049 8.3984 14.8262 9.43061 13.6845 L9.43061 15.2172 L12.5429 15.2172 L12.5429 0 Z"/>
   <path transform="translate(65.208, 61.8924)" style="fill:#438dcb; fill-rule:nonzero;stroke:none;" d="M7.86666 16.9688 L6.59986 16.9688 C5.45818 16.9688 4.87952 16.3745 4.87952 15.2016 L4.87952 6.97521 L7.86666 6.97521 L7.86666 4.62929 L4.87952 4.62929 L4.87952 0 L1.76726 0 L1.76726 4.62929 L0 4.62929 L0 6.97521 L1.76726 6.97521 L1.76726 15.3423 C1.76726 16.5153 2.11133 17.5162 2.81511 18.2826 C3.58144 19.1584 4.64493 19.5806 6.00556 19.5806 L7.86666 19.5806 L7.86666 16.9688 Z"/>
   <path transform="translate(78.5978, 60)" style="fill:#438dcb; fill-rule:nonzero;stroke:none;" d="M3.29993 0 L0 0 L0 3.25301 L3.29993 3.25301 L3.29993 0 Z M3.20609 6.25579 L0.0938369 6.25579 L0.0938369 21.473 L3.20609 21.473 L3.20609 6.25579 Z"/>
   <path transform="translate(87.6861, 66.0681)" style="fill:#438dcb; fill-rule:nonzero;stroke:none;" d="M11.104 1.82982 C9.89979 0.5943 8.36712 0 6.44347 0 C4.55109 0 3.00278 0.5943 1.79854 1.82982 C0.60994 3.06534 0 5.05155 0 7.77282 C0 10.541 0.60994 12.5272 1.79854 13.7471 C3.00278 14.9826 4.55109 15.5926 6.44347 15.5926 C8.36712 15.5926 9.89979 14.9826 11.104 13.7471 C12.2926 12.5272 12.9026 10.541 12.9026 7.77282 C12.9026 5.05155 12.2926 3.06534 11.104 1.82982 Z M8.72683 11.9486 C8.11689 12.5585 7.35056 12.8557 6.44347 12.8557 C5.55202 12.8557 4.78568 12.5585 4.17574 11.9486 C3.47196 11.2604 3.11226 9.85287 3.11226 7.77282 C3.11226 5.70841 3.47196 4.30086 4.17574 3.59708 C4.7544 3.03406 5.52074 2.73691 6.44347 2.73691 C7.38183 2.73691 8.14817 3.03406 8.72683 3.59708 C9.43061 4.30086 9.79031 5.70841 9.79031 7.77282 C9.79031 9.85287 9.43061 11.2604 8.72683 11.9486 Z"/>
   <path transform="translate(106.476, 66.0681)" style="fill:#438dcb; fill-rule:nonzero;stroke:none;" d="M12.5429 5.67713 C12.5429 3.81603 12.0111 2.3772 10.9789 1.37627 C10.0249 0.453545 8.75811 0 7.17852 0 C5.48946 0 4.12882 0.578661 3.0497 1.7047 L3.0497 0.187674 L0 0.187674 L0 15.4049 L3.0497 15.4049 L3.0497 6.13068 C3.0497 5.02027 3.36249 4.14446 3.98807 3.55016 C4.58237 3.00278 5.3487 2.73691 6.28707 2.73691 C7.24108 2.73691 7.96049 3.00278 8.50788 3.55016 C9.11782 4.11318 9.43061 4.98899 9.43061 6.13068 L9.43061 15.4049 L12.5429 15.4049 L12.5429 5.67713 Z"/>
   <path transform="translate(124.007, 66.0681)" style="fill:#438dcb; fill-rule:nonzero;stroke:none;" d="M8.33584 6.4591 L5.89608 6.24015 C4.45725 6.13068 3.76911 5.55202 3.76911 4.50417 C3.76911 3.20609 4.70748 2.54924 6.55294 2.54924 C8.21073 2.54924 9.47752 2.90894 10.369 3.65964 L12.3239 1.7047 C11.0102 0.578661 9.10218 0 6.58422 0 C4.9108 0 3.53452 0.390987 2.47104 1.20424 C1.345 2.08005 0.766334 3.20609 0.766334 4.66056 C0.766334 7.2098 2.28336 8.58607 5.33306 8.85195 L7.81974 9.0709 C9.18037 9.19601 9.88415 9.79031 9.88415 10.8694 C9.88415 12.277 8.75811 12.9651 6.49038 12.9651 C4.58237 12.9651 3.11226 12.4334 2.04877 11.3855 L0 13.3874 C1.48575 14.8575 3.67528 15.5926 6.49038 15.5926 C8.41404 15.5926 9.97799 15.1703 11.1666 14.3258 C12.3552 13.4812 12.9338 12.277 12.9338 10.7443 C12.9338 8.13253 11.4012 6.72498 8.33584 6.4591 Z"/>
  </g>
 </g>
</svg>
