<?xml version="1.0" encoding="utf-8"?>
<!-- Generator: Adobe Illustrator 26.2.1, SVG Export Plug-In . SVG Version: 6.00 Build 0)  -->
<svg version="1.1" id="Ebene_1" xmlns="http://www.w3.org/2000/svg" xmlns:xlink="http://www.w3.org/1999/xlink" x="0px" y="0px"
	 viewBox="145.815 240.486 304.500 143.300" style="enable-background:new 145.815 240.486 304.500 143.300;" xml:space="preserve">
<style type="text/css">
	.st0{enable-background:new    ;}
	.st1{fill:#00658F;}
	.st2{fill:#DD9D00;}
</style>
<g transform="matrix(1,0,0,1,-6.78474,13.886)">
	<g class="st0">
		<path class="st1" d="M198.5,262c3.5,5.3,5.2,12.7,5.2,22.3c0,5.9-0.9,11.2-2.7,15.8c-1.8,4.6-4.4,8.2-7.8,10.8
			c-3.4,2.6-7.5,3.9-12.2,3.9c-6.1,0-10.9-2.1-14.5-6.3v26.8l-13.9,1.5v-81.2h12.2l0.8,7.1c2.2-2.9,4.8-5.1,7.7-6.5
			c2.9-1.4,5.9-2.2,9.1-2.2C189.7,254.1,195,256.7,198.5,262z M189.1,284.4c0-7-0.9-12.1-2.7-15.2c-1.8-3.1-4.5-4.7-8.2-4.7
			c-2.3,0-4.5,0.7-6.5,2.1c-2,1.4-3.8,3.3-5.2,5.7v25.9c2.7,4,6.2,6,10.5,6C185.1,304.2,189.1,297.6,189.1,284.4z"/>
		<path class="st1" d="M258.4,262.2c4.7,5.4,7.1,12.8,7.1,22.2c0,6-1.1,11.3-3.3,15.9c-2.2,4.6-5.3,8.2-9.3,10.7
			c-4.1,2.5-8.9,3.8-14.5,3.8c-8.5,0-15.1-2.7-19.9-8.1c-4.8-5.4-7.2-12.8-7.2-22.3c0-6,1.1-11.3,3.3-15.9c2.2-4.6,5.3-8.1,9.4-10.7
			c4.1-2.5,8.9-3.8,14.5-3.8C247,254.1,253.6,256.8,258.4,262.2z M226.1,284.4c0,6.8,1,11.8,3.1,15.1c2.1,3.2,5.2,4.8,9.3,4.8
			c4.1,0,7.2-1.6,9.3-4.9c2.1-3.3,3.1-8.3,3.1-15c0-6.7-1-11.7-3.1-14.9c-2.1-3.2-5.1-4.8-9.2-4.8
			C230.2,264.6,226.1,271.2,226.1,284.4z"/>
		<path class="st1" d="M288.7,229c1.6,1.6,2.4,3.6,2.4,6c0,2.4-0.8,4.4-2.4,6c-1.6,1.6-3.8,2.4-6.4,2.4c-2.5,0-4.6-0.8-6.3-2.4
			c-1.6-1.6-2.4-3.6-2.4-6c0-2.4,0.8-4.4,2.4-6c1.6-1.6,3.7-2.4,6.3-2.4C285,226.6,287.1,227.4,288.7,229z M289.4,255.7v57.5h-13.9
			v-57.5H289.4z"/>
		<path class="st1" d="M345.5,258.7c2.9,3.1,4.3,7.4,4.3,12.9v41.6h-13.9v-39.5c0-3.4-0.6-5.8-1.8-7.2c-1.2-1.4-3-2.1-5.3-2.1
			c-2.4,0-4.5,0.7-6.5,2.2c-1.9,1.5-3.8,3.6-5.6,6.5v40h-13.9v-57.5h12.1l1.1,7.5c4.7-6.1,10.5-9.1,17.5-9.1
			C338.7,254.1,342.7,255.6,345.5,258.7z"/>
		<path class="st1" d="M397.3,310.5c-2,1.5-4.3,2.5-6.8,3.3c-2.5,0.7-5.1,1.1-7.7,1.1c-5.7-0.1-9.9-1.7-12.9-4.8
			c-2.9-3.2-4.4-7.8-4.4-14v-30.3h-9v-10h9V243l13.9-1.6v14.3h13.4l-1.4,10h-12v30c0,2.8,0.5,4.9,1.5,6.1c1,1.2,2.5,1.8,4.6,1.8
			c2.1,0,4.4-0.7,6.8-2.1L397.3,310.5z"/>
		<path class="st1" d="M455.6,293.5c0,4-1.1,7.6-3.4,10.8c-2.2,3.2-5.4,5.8-9.5,7.7c-4.1,1.9-8.9,2.8-14.3,2.8c-5.4,0-10-0.9-14-2.8
			c-4-1.8-7.1-4.4-9.2-7.6c-2.2-3.2-3.3-6.8-3.3-10.8c0-8.4,4.6-14.6,13.9-18.5c-7.3-4-11-9.7-11-17.3c0-3.8,1.1-7.2,3.2-10.2
			c2.1-2.9,5-5.2,8.7-6.7c3.7-1.6,7.7-2.3,12-2.3c4.4,0,8.4,0.7,12.1,2.2c3.6,1.5,6.5,3.6,8.6,6.4c2.1,2.8,3.2,6.2,3.2,10.1
			c0,6.9-4,12.4-12.1,16.5C450.6,278.5,455.6,285,455.6,293.5z M438.1,301.5c2.2-2,3.4-4.7,3.4-7.9c0-3.3-1-6-2.9-7.9
			c-2-1.9-5.4-3.8-10.4-5.6l-3.4-1.2c-5.9,3.1-8.8,7.9-8.8,14.5c0,3.5,1.2,6.2,3.5,8.2c2.3,2,5.4,3,9.3,3
			C432.7,304.5,435.9,303.5,438.1,301.5z M421.1,251c-1.8,1.7-2.8,4.1-2.8,7.2c0,2.9,0.9,5.2,2.6,6.9c1.7,1.7,4.5,3.2,8.4,4.6
			l2.1,0.8c2.8-1.7,4.8-3.6,6-5.5c1.2-1.9,1.8-4.2,1.8-6.9c0-3-0.9-5.3-2.7-7c-1.8-1.7-4.4-2.6-7.7-2.6
			C425.5,248.5,422.9,249.4,421.1,251z"/>
		<path class="st2" d="M202.6,334.7v34.5h-3.8l-0.4-3.4c-0.8,1.2-1.8,2.2-3,2.9c-1.2,0.7-2.6,1.1-4.1,1.1c-2.9,0-5.2-1.2-6.8-3.5
			c-1.6-2.3-2.5-5.4-2.5-9.3c0-2.5,0.4-4.8,1.2-6.7c0.8-2,1.9-3.5,3.4-4.6c1.5-1.1,3.2-1.7,5.1-1.7c2.5,0,4.7,1,6.6,3v-12.9
			L202.6,334.7z M195.6,365.5c0.9-0.6,1.8-1.5,2.7-2.7v-12.1c-0.8-1.1-1.7-1.9-2.6-2.4c-0.9-0.5-2-0.8-3.1-0.8
			c-1.9,0-3.4,0.8-4.4,2.4c-1,1.6-1.6,4-1.6,7.1c0,3.2,0.5,5.5,1.4,7.1c1,1.6,2.4,2.3,4.2,2.3C193.5,366.4,194.7,366.1,195.6,365.5z
			"/>
		<path class="st2" d="M227.2,365.8c0.3,0.5,0.9,0.8,1.5,1.1l-1,3c-1.3-0.2-2.3-0.5-3.1-1.1c-0.8-0.6-1.4-1.4-1.7-2.6
			c-1.7,2.5-4.1,3.7-7.3,3.7c-2.4,0-4.3-0.7-5.7-2.1c-1.4-1.4-2.1-3.2-2.1-5.4c0-2.6,0.9-4.6,2.8-6c1.9-1.4,4.6-2.1,8-2.1h3.8v-1.8
			c0-1.7-0.4-3-1.3-3.7s-2.1-1.1-3.9-1.1c-1.8,0-4,0.4-6.6,1.3l-1.1-3.1c3.1-1.1,5.9-1.7,8.5-1.7c2.9,0,5.1,0.7,6.5,2.1
			c1.4,1.4,2.2,3.4,2.2,6.1v11.3C226.7,364.5,226.8,365.3,227.2,365.8z M222.4,362.8v-5.7h-3.2c-4.6,0-6.8,1.7-6.8,5
			c0,1.5,0.4,2.6,1.1,3.3c0.7,0.7,1.8,1.1,3.2,1.1C219,366.6,221,365.3,222.4,362.8z"/>
		<path class="st2" d="M246.9,368.2c-1.6,1.1-3.5,1.7-5.5,1.7c-2.1,0-3.7-0.6-4.9-1.8c-1.2-1.2-1.8-2.9-1.8-5.2V348h-4.3v-3.3h4.3
			v-5.6l4.3-0.5v6.1h5.8l-0.5,3.3h-5.4v14.7c0,1.3,0.2,2.2,0.7,2.8c0.5,0.6,1.2,0.9,2.3,0.9c1,0,2.1-0.3,3.3-1L246.9,368.2z"/>
		<path class="st2" d="M268.5,365.8c0.3,0.5,0.9,0.8,1.5,1.1l-1,3c-1.3-0.2-2.3-0.5-3.1-1.1c-0.8-0.6-1.4-1.4-1.7-2.6
			c-1.7,2.5-4.1,3.7-7.3,3.7c-2.4,0-4.3-0.7-5.7-2.1c-1.4-1.4-2.1-3.2-2.1-5.4c0-2.6,0.9-4.6,2.8-6c1.9-1.4,4.6-2.1,8-2.1h3.8v-1.8
			c0-1.7-0.4-3-1.3-3.7c-0.8-0.7-2.1-1.1-3.9-1.1c-1.8,0-4,0.4-6.6,1.3l-1.1-3.1c3.1-1.1,5.9-1.7,8.5-1.7c2.9,0,5.1,0.7,6.5,2.1
			c1.4,1.4,2.2,3.4,2.2,6.1v11.3C267.9,364.5,268.1,365.3,268.5,365.8z M263.6,362.8v-5.7h-3.2c-4.6,0-6.8,1.7-6.8,5
			c0,1.5,0.4,2.6,1.1,3.3c0.7,0.7,1.8,1.1,3.2,1.1C260.3,366.6,262.2,365.3,263.6,362.8z"/>
		<path class="st2" d="M318.8,346.1c1.2,1.4,1.8,3.2,1.8,5.5v17.7h-4.3v-17.1c0-3.2-1.2-4.8-3.5-4.8c-1.2,0-2.2,0.4-3.1,1.1
			c-0.8,0.7-1.7,1.8-2.7,3.3v17.5h-4.3v-17.1c0-3.2-1.2-4.8-3.5-4.8c-1.2,0-2.3,0.4-3.1,1.1c-0.8,0.7-1.7,1.8-2.7,3.3v17.5h-4.3
			v-24.6h3.7l0.4,3.6c1.8-2.8,4.2-4.2,7.1-4.2c1.5,0,2.8,0.4,3.9,1.2c1.1,0.8,1.8,1.9,2.3,3.3c1-1.4,2-2.5,3.2-3.3
			c1.2-0.8,2.5-1.1,4.1-1.1C315.9,344.1,317.5,344.8,318.8,346.1z"/>
		<path class="st2" d="M344.9,365.8c0.3,0.5,0.9,0.8,1.5,1.1l-1,3c-1.3-0.2-2.3-0.5-3.1-1.1c-0.8-0.6-1.4-1.4-1.7-2.6
			c-1.7,2.5-4.1,3.7-7.3,3.7c-2.4,0-4.3-0.7-5.7-2.1c-1.4-1.4-2.1-3.2-2.1-5.4c0-2.6,0.9-4.6,2.8-6c1.9-1.4,4.6-2.1,8-2.1h3.8v-1.8
			c0-1.7-0.4-3-1.3-3.7c-0.8-0.7-2.1-1.1-3.9-1.1c-1.8,0-4,0.4-6.6,1.3l-1.1-3.1c3.1-1.1,5.9-1.7,8.5-1.7c2.9,0,5.1,0.7,6.5,2.1
			c1.4,1.4,2.2,3.4,2.2,6.1v11.3C344.4,364.5,344.6,365.3,344.9,365.8z M340.1,362.8v-5.7h-3.2c-4.6,0-6.8,1.7-6.8,5
			c0,1.5,0.4,2.6,1.1,3.3c0.7,0.7,1.8,1.1,3.2,1.1C336.8,366.6,338.7,365.3,340.1,362.8z"/>
		<path class="st2" d="M364.6,368.2c-1.6,1.1-3.5,1.7-5.5,1.7c-2.1,0-3.7-0.6-4.9-1.8c-1.2-1.2-1.8-2.9-1.8-5.2V348h-4.3v-3.3h4.3
			v-5.6l4.3-0.5v6.1h5.8l-0.5,3.3h-5.4v14.7c0,1.3,0.2,2.2,0.7,2.8c0.5,0.6,1.2,0.9,2.3,0.9c1,0,2.1-0.3,3.3-1L364.6,368.2z"/>
		<path class="st2" d="M382.1,368.2c-1.6,1.1-3.5,1.7-5.5,1.7c-2.1,0-3.7-0.6-4.9-1.8c-1.2-1.2-1.8-2.9-1.8-5.2V348h-4.3v-3.3h4.3
			v-5.6l4.3-0.5v6.1h5.8l-0.5,3.3h-5.4v14.7c0,1.3,0.2,2.2,0.7,2.8c0.5,0.6,1.2,0.9,2.3,0.9c1,0,2.1-0.3,3.3-1L382.1,368.2z"/>
		<path class="st2" d="M403.9,358.4h-15.7c0.2,2.7,0.9,4.7,2.1,6c1.2,1.3,2.7,1.9,4.6,1.9c1.2,0,2.3-0.2,3.3-0.5
			c1-0.3,2-0.9,3.1-1.6l1.9,2.6c-2.6,2.1-5.5,3.1-8.6,3.1c-3.4,0-6.1-1.1-8-3.4c-1.9-2.2-2.9-5.3-2.9-9.3c0-2.6,0.4-4.8,1.2-6.8
			c0.8-2,2-3.5,3.6-4.7c1.5-1.1,3.4-1.7,5.4-1.7c3.3,0,5.8,1.1,7.5,3.2c1.7,2.2,2.6,5.1,2.6,8.9C404,357,404,357.7,403.9,358.4z
			 M399.7,355c0-2.4-0.5-4.3-1.4-5.6c-1-1.3-2.4-1.9-4.3-1.9c-3.5,0-5.4,2.6-5.7,7.8h11.5V355z"/>
		<path class="st2" d="M423.8,344.4l-0.8,4.2c-0.7-0.2-1.5-0.3-2.2-0.3c-1.5,0-2.8,0.6-3.7,1.7c-0.9,1.1-1.7,2.9-2.2,5.2v14.1h-4.3
			v-24.6h3.7l0.4,5c0.7-1.8,1.5-3.2,2.7-4.2c1.1-0.9,2.4-1.4,3.9-1.4C422.3,344.1,423.1,344.2,423.8,344.4z"/>
		<path class="st2" d="M441,344.8c1.3,0.5,2.6,1.2,3.8,2.1l-1.8,2.7c-1.1-0.7-2.2-1.2-3.2-1.6c-1-0.3-2.1-0.5-3.2-0.5
			c-1.4,0-2.5,0.3-3.3,0.9c-0.8,0.6-1.2,1.4-1.2,2.4c0,1,0.4,1.8,1.1,2.3c0.8,0.6,2.1,1.1,4.1,1.6c2.7,0.7,4.8,1.6,6.1,2.8
			c1.4,1.2,2,2.8,2,4.9c0,2.4-0.9,4.3-2.8,5.6c-1.9,1.3-4.2,1.9-6.9,1.9c-3.7,0-6.8-1.1-9.3-3.2l2.3-2.6c2.1,1.6,4.4,2.4,6.9,2.4
			c1.6,0,2.9-0.3,3.9-1c1-0.7,1.4-1.6,1.4-2.7c0-0.8-0.2-1.5-0.5-2c-0.3-0.5-0.9-1-1.8-1.4c-0.8-0.4-2.1-0.8-3.7-1.2
			c-2.6-0.7-4.5-1.6-5.7-2.8c-1.2-1.2-1.8-2.6-1.8-4.4c0-1.3,0.4-2.4,1.1-3.5c0.8-1,1.8-1.9,3.2-2.4c1.4-0.6,2.9-0.9,4.6-0.9
			S439.7,344.3,441,344.8z"/>
		<path class="st2" d="M456.2,364.3c0.6,0.6,0.9,1.4,0.9,2.3c0,0.9-0.3,1.7-0.9,2.3c-0.6,0.6-1.4,1-2.3,1c-0.9,0-1.7-0.3-2.3-1
			c-0.6-0.6-0.9-1.4-0.9-2.3c0-0.9,0.3-1.7,0.9-2.3c0.6-0.6,1.4-0.9,2.3-0.9C454.8,363.4,455.6,363.7,456.2,364.3z"/>
	</g>
</g>
</svg>
